<?xml version="1.0" standalone="no"?><!DOCTYPE svg PUBLIC "-//W3C//DTD SVG 1.1//EN" "http://www.w3.org/Graphics/SVG/1.1/DTD/svg11.dtd"><svg class="icon" height="512" viewBox="0 0 1024 1024" version="1.1" xmlns="http://www.w3.org/2000/svg"><path d="M784.4783 420.507216c-15.030321 0-29.610388 1.967818-43.50177 5.617951l-51.014884-140.92052 94.51563 0c17.318434 0 30.614252 6.154163 36.464493 16.881482 4.053316 7.42204 3.749394 15.760962-0.825808 22.87294-8.037047 12.508895-26.931373 18.708084-52.021817 16.835434-8.627495-0.51984-16.027022 5.843078-16.643052 14.402011-0.61603 8.569166 5.826705 16.014742 14.399965 16.637935 36.688597 2.591011 66.040089-8.65717 80.434937-31.039947 10.768251-16.741289 11.498892-37.155225 1.971911-54.613852-11.313673-20.726044-35.154661-33.094746-63.780629-33.094746L667.782507 254.085906c-5.074575 0-9.827833 2.476401-12.745279 6.624884-2.90926 4.148483-3.615341 9.466606-1.886977 14.229073l17.800411 49.1627L408.224983 324.102562l-8.425903-23.339568 42.371016 0c8.589632 0 15.559371-6.966669 15.559371-15.559371 0-8.592702-6.969739-15.559371-15.559371-15.559371l-101.136422 0c-8.589632 0-15.559371 6.966669-15.559371 15.559371 0 8.592702 6.970762 15.559371 15.559371 15.559371l26.077935 0c0.148379 1.093914 0.38681 2.184759 0.778736 3.260254l10.82658 29.971615L315.570747 438.202227c-22.834055-11.305487-48.5129-17.695011-75.673493-17.695011-94.375437 0-171.155125 76.779687-171.155125 171.155125 0 94.378507 76.779687 171.154102 171.155125 171.154102 87.507006 0 159.834288-66.018599 169.908738-150.86194l38.340213 0c7.995091 14.246469 23.237237 23.904433 40.702004 23.904433 25.744337 0 46.679136-20.940938 46.679136-46.677089 0-8.240685-2.165316-15.97381-5.921873-22.694885l156.965961-199.222367 25.160029 69.520353c-58.094116 27.392884-98.406241 86.500073-98.406241 154.877393 0 94.378507 76.779687 171.154102 171.154102 171.154102 94.375437 0 171.155125-76.775594 171.155125-171.154102C955.633425 497.286903 878.853737 420.507216 784.4783 420.507216M656.431995 355.223351 506.219855 545.886785c-5.375427-2.164293-11.232832-3.384074-17.372669-3.384074-0.569982 0-1.127683 0.063445-1.693572 0.086981l-67.685565-187.367365L656.431995 355.222327zM392.300292 371.606483l65.912176 182.441169c-7.810896 6.821359-13.326517 16.175401-15.256472 26.78811l-32.284287 0c-3.236718-51.650357-29.463032-97.17111-68.581981-126.383432L392.300292 371.606483zM379.377982 580.835761 265.500375 580.835761l60.308551-99.510388C356.000552 504.880859 376.266108 540.447912 379.377982 580.835761M239.897254 731.696678c-77.213569 0-140.03536-62.819744-140.03536-140.03536 0-77.212546 62.822814-140.03536 140.03536-140.03536 21.253046 0 41.340547 4.900613 59.403948 13.412474l-72.707952 119.971395c-1.861394 3.057639-2.473331 6.501064-2.092661 9.79611-0.054235 0.528026-0.163729 1.048889-0.163729 1.588171 0 8.592702 6.970762 15.559371 15.560394 15.559371l138.395 0C368.403023 679.56025 310.202483 731.696678 239.897254 731.696678M488.848209 604.740194c-8.581446 0-15.559371-6.985088-15.559371-15.558347 0-8.582469 6.976902-15.559371 15.559371-15.559371 8.581446 0 15.559371 6.976902 15.559371 15.559371C504.40758 597.755106 497.429655 604.740194 488.848209 604.740194M784.4783 731.696678c-77.212546 0-140.03536-62.819744-140.03536-140.03536 0-54.906517 31.847336-102.413508 77.983095-125.346823l47.420009 131.009799c2.294252 6.326079 8.266267 10.271948 14.632255 10.271948 1.76725 0 3.548826-0.304945 5.296633-0.934279 8.083096-2.923586 12.260232-11.856026 9.336646-19.932981l-47.446615-131.058918c10.547217-2.549056 21.494547-4.045129 32.813337-4.045129 77.212546 0 140.03536 62.822814 140.03536 140.03536C924.51366 668.877957 861.690846 731.696678 784.4783 731.696678" /></svg>